<svg width="24" height="24" viewBox="0 0 24 24" fill="none" xmlns="http://www.w3.org/2000/svg"><path d="M9 14h8M6 21V4a1 1 0 0 1 1-1c.552 0 .972.56 1.44.855.138.088.32.145.56.145.24 0 .422-.057.56-.145C10.028 3.561 10.448 3 11 3c.552 0 .972.56 1.44.855.138.088.32.145.56.145.24 0 .422-.057.56-.145C14.028 3.561 14.448 3 15 3c.552 0 .972.56 1.44.855.138.088.32.145.56.145.24 0 .422-.057.56-.145C18.028 3.561 18.448 3 19 3a1 1 0 0 1 1 1v13a4 4 0 0 1-4 4H6zm0-8H3v5.002A2.998 2.998 0 0 0 5.998 21L6 13zm8 4h2.5M9 11h4M9 8h4m3 3h1m-1-3h1" stroke="#0194F3" stroke-width="2" stroke-linecap="round" stroke-linejoin="round"/></svg>